<?xml version="1.0" encoding="utf-8" standalone="no"?>
<!DOCTYPE svg PUBLIC "-//W3C//DTD SVG 1.1//EN"
  "http://www.w3.org/Graphics/SVG/1.1/DTD/svg11.dtd">
<!-- Created with matplotlib (https://matplotlib.org/) -->
<svg height="180.65625pt" version="1.1" viewBox="0 0 251.482813 180.65625" width="251.482813pt" xmlns="http://www.w3.org/2000/svg" xmlns:xlink="http://www.w3.org/1999/xlink">
 <defs>
  <style type="text/css">
*{stroke-linecap:butt;stroke-linejoin:round;}
  </style>
 </defs>
 <g id="figure_1">
  <g id="patch_1">
   <path d="M -0 180.65625 
L 251.482813 180.65625 
L 251.482813 0 
L -0 0 
z
" style="fill:none;"/>
  </g>
  <g id="axes_1">
   <g id="patch_2">
    <path d="M 48.982813 143.1 
L 244.282813 143.1 
L 244.282813 7.2 
L 48.982813 7.2 
z
" style="fill:#ffffff;"/>
   </g>
   <g id="matplotlib.axis_1">
    <g id="xtick_1">
     <g id="line2d_1">
      <defs>
       <path d="M 0 0 
L 0 3.5 
" id="mc80b6003ef" style="stroke:#000000;stroke-width:0.8;"/>
      </defs>
      <g>
       <use style="stroke:#000000;stroke-width:0.8;" x="82.728707" xlink:href="#mc80b6003ef" y="143.1"/>
      </g>
     </g>
     <g id="text_1">
      <!-- −20 -->
      <defs>
       <path d="M 10.59375 35.5 
L 73.1875 35.5 
L 73.1875 27.203125 
L 10.59375 27.203125 
z
" id="DejaVuSans-8722"/>
       <path d="M 19.1875 8.296875 
L 53.609375 8.296875 
L 53.609375 0 
L 7.328125 0 
L 7.328125 8.296875 
Q 12.9375 14.109375 22.625 23.890625 
Q 32.328125 33.6875 34.8125 36.53125 
Q 39.546875 41.84375 41.421875 45.53125 
Q 43.3125 49.21875 43.3125 52.78125 
Q 43.3125 58.59375 39.234375 62.25 
Q 35.15625 65.921875 28.609375 65.921875 
Q 23.96875 65.921875 18.8125 64.3125 
Q 13.671875 62.703125 7.8125 59.421875 
L 7.8125 69.390625 
Q 13.765625 71.78125 18.9375 73 
Q 24.125 74.21875 28.421875 74.21875 
Q 39.75 74.21875 46.484375 68.546875 
Q 53.21875 62.890625 53.21875 53.421875 
Q 53.21875 48.921875 51.53125 44.890625 
Q 49.859375 40.875 45.40625 35.40625 
Q 44.1875 33.984375 37.640625 27.21875 
Q 31.109375 20.453125 19.1875 8.296875 
z
" id="DejaVuSans-50"/>
       <path d="M 31.78125 66.40625 
Q 24.171875 66.40625 20.328125 58.90625 
Q 16.5 51.421875 16.5 36.375 
Q 16.5 21.390625 20.328125 13.890625 
Q 24.171875 6.390625 31.78125 6.390625 
Q 39.453125 6.390625 43.28125 13.890625 
Q 47.125 21.390625 47.125 36.375 
Q 47.125 51.421875 43.28125 58.90625 
Q 39.453125 66.40625 31.78125 66.40625 
z
M 31.78125 74.21875 
Q 44.046875 74.21875 50.515625 64.515625 
Q 56.984375 54.828125 56.984375 36.375 
Q 56.984375 17.96875 50.515625 8.265625 
Q 44.046875 -1.421875 31.78125 -1.421875 
Q 19.53125 -1.421875 13.0625 8.265625 
Q 6.59375 17.96875 6.59375 36.375 
Q 6.59375 54.828125 13.0625 64.515625 
Q 19.53125 74.21875 31.78125 74.21875 
z
" id="DejaVuSans-48"/>
      </defs>
      <g transform="translate(72.176363 157.698438)scale(0.1 -0.1)">
       <use xlink:href="#DejaVuSans-8722"/>
       <use x="83.789062" xlink:href="#DejaVuSans-50"/>
       <use x="147.412109" xlink:href="#DejaVuSans-48"/>
      </g>
     </g>
    </g>
    <g id="xtick_2">
     <g id="line2d_2">
      <g>
       <use style="stroke:#000000;stroke-width:0.8;" x="146.632812" xlink:href="#mc80b6003ef" y="143.1"/>
      </g>
     </g>
     <g id="text_2">
      <!-- 0 -->
      <g transform="translate(143.451562 157.698438)scale(0.1 -0.1)">
       <use xlink:href="#DejaVuSans-48"/>
      </g>
     </g>
    </g>
    <g id="xtick_3">
     <g id="line2d_3">
      <g>
       <use style="stroke:#000000;stroke-width:0.8;" x="210.536918" xlink:href="#mc80b6003ef" y="143.1"/>
      </g>
     </g>
     <g id="text_3">
      <!-- 20 -->
      <g transform="translate(204.174418 157.698438)scale(0.1 -0.1)">
       <use xlink:href="#DejaVuSans-50"/>
       <use x="63.623047" xlink:href="#DejaVuSans-48"/>
      </g>
     </g>
    </g>
    <g id="text_4">
     <!-- x -->
     <defs>
      <path d="M 54.890625 54.6875 
L 35.109375 28.078125 
L 55.90625 0 
L 45.3125 0 
L 29.390625 21.484375 
L 13.484375 0 
L 2.875 0 
L 24.125 28.609375 
L 4.6875 54.6875 
L 15.28125 54.6875 
L 29.78125 35.203125 
L 44.28125 54.6875 
z
" id="DejaVuSans-120"/>
     </defs>
     <g transform="translate(143.673438 171.376563)scale(0.1 -0.1)">
      <use xlink:href="#DejaVuSans-120"/>
     </g>
    </g>
   </g>
   <g id="matplotlib.axis_2">
    <g id="ytick_1">
     <g id="line2d_4">
      <defs>
       <path d="M 0 0 
L -3.5 0 
" id="ma9b7effea7" style="stroke:#000000;stroke-width:0.8;"/>
      </defs>
      <g>
       <use style="stroke:#000000;stroke-width:0.8;" x="48.982813" xlink:href="#ma9b7effea7" y="121.334158"/>
      </g>
     </g>
     <g id="text_5">
      <!-- −20 -->
      <g transform="translate(20.878125 125.133376)scale(0.1 -0.1)">
       <use xlink:href="#DejaVuSans-8722"/>
       <use x="83.789062" xlink:href="#DejaVuSans-50"/>
       <use x="147.412109" xlink:href="#DejaVuSans-48"/>
      </g>
     </g>
    </g>
    <g id="ytick_2">
     <g id="line2d_5">
      <g>
       <use style="stroke:#000000;stroke-width:0.8;" x="48.982813" xlink:href="#ma9b7effea7" y="98.242081"/>
      </g>
     </g>
     <g id="text_6">
      <!-- −10 -->
      <defs>
       <path d="M 12.40625 8.296875 
L 28.515625 8.296875 
L 28.515625 63.921875 
L 10.984375 60.40625 
L 10.984375 69.390625 
L 28.421875 72.90625 
L 38.28125 72.90625 
L 38.28125 8.296875 
L 54.390625 8.296875 
L 54.390625 0 
L 12.40625 0 
z
" id="DejaVuSans-49"/>
      </defs>
      <g transform="translate(20.878125 102.041299)scale(0.1 -0.1)">
       <use xlink:href="#DejaVuSans-8722"/>
       <use x="83.789062" xlink:href="#DejaVuSans-49"/>
       <use x="147.412109" xlink:href="#DejaVuSans-48"/>
      </g>
     </g>
    </g>
    <g id="ytick_3">
     <g id="line2d_6">
      <g>
       <use style="stroke:#000000;stroke-width:0.8;" x="48.982813" xlink:href="#ma9b7effea7" y="75.150004"/>
      </g>
     </g>
     <g id="text_7">
      <!-- 0 -->
      <g transform="translate(35.620313 78.949222)scale(0.1 -0.1)">
       <use xlink:href="#DejaVuSans-48"/>
      </g>
     </g>
    </g>
    <g id="ytick_4">
     <g id="line2d_7">
      <g>
       <use style="stroke:#000000;stroke-width:0.8;" x="48.982813" xlink:href="#ma9b7effea7" y="52.057927"/>
      </g>
     </g>
     <g id="text_8">
      <!-- 10 -->
      <g transform="translate(29.257813 55.857145)scale(0.1 -0.1)">
       <use xlink:href="#DejaVuSans-49"/>
       <use x="63.623047" xlink:href="#DejaVuSans-48"/>
      </g>
     </g>
    </g>
    <g id="ytick_5">
     <g id="line2d_8">
      <g>
       <use style="stroke:#000000;stroke-width:0.8;" x="48.982813" xlink:href="#ma9b7effea7" y="28.96585"/>
      </g>
     </g>
     <g id="text_9">
      <!-- 20 -->
      <g transform="translate(29.257813 32.765068)scale(0.1 -0.1)">
       <use xlink:href="#DejaVuSans-50"/>
       <use x="63.623047" xlink:href="#DejaVuSans-48"/>
      </g>
     </g>
    </g>
    <g id="text_10">
     <!-- f(x) -->
     <defs>
      <path d="M 37.109375 75.984375 
L 37.109375 68.5 
L 28.515625 68.5 
Q 23.6875 68.5 21.796875 66.546875 
Q 19.921875 64.59375 19.921875 59.515625 
L 19.921875 54.6875 
L 34.71875 54.6875 
L 34.71875 47.703125 
L 19.921875 47.703125 
L 19.921875 0 
L 10.890625 0 
L 10.890625 47.703125 
L 2.296875 47.703125 
L 2.296875 54.6875 
L 10.890625 54.6875 
L 10.890625 58.5 
Q 10.890625 67.625 15.140625 71.796875 
Q 19.390625 75.984375 28.609375 75.984375 
z
" id="DejaVuSans-102"/>
      <path d="M 31 75.875 
Q 24.46875 64.65625 21.28125 53.65625 
Q 18.109375 42.671875 18.109375 31.390625 
Q 18.109375 20.125 21.3125 9.0625 
Q 24.515625 -2 31 -13.1875 
L 23.1875 -13.1875 
Q 15.875 -1.703125 12.234375 9.375 
Q 8.59375 20.453125 8.59375 31.390625 
Q 8.59375 42.28125 12.203125 53.3125 
Q 15.828125 64.359375 23.1875 75.875 
z
" id="DejaVuSans-40"/>
      <path d="M 8.015625 75.875 
L 15.828125 75.875 
Q 23.140625 64.359375 26.78125 53.3125 
Q 30.421875 42.28125 30.421875 31.390625 
Q 30.421875 20.453125 26.78125 9.375 
Q 23.140625 -1.703125 15.828125 -13.1875 
L 8.015625 -13.1875 
Q 14.5 -2 17.703125 9.0625 
Q 20.90625 20.125 20.90625 31.390625 
Q 20.90625 42.671875 17.703125 53.65625 
Q 14.5 64.65625 8.015625 75.875 
z
" id="DejaVuSans-41"/>
     </defs>
     <g transform="translate(14.798438 83.771094)rotate(-90)scale(0.1 -0.1)">
      <use xlink:href="#DejaVuSans-102"/>
      <use x="35.205078" xlink:href="#DejaVuSans-40"/>
      <use x="74.21875" xlink:href="#DejaVuSans-120"/>
      <use x="133.398438" xlink:href="#DejaVuSans-41"/>
     </g>
    </g>
   </g>
   <g id="line2d_9">
    <path clip-path="url(#pac9d9197c8)" d="M 57.860085 130.630843 
L 58.690839 133.600312 
L 59.393784 135.384161 
L 60.000873 136.379358 
L 60.512106 136.824176 
L 60.927482 136.92189 
L 61.342859 136.785145 
L 61.790188 136.378863 
L 62.301421 135.591446 
L 62.90851 134.220436 
L 63.643407 131.952337 
L 64.506112 128.489524 
L 65.496626 123.540986 
L 66.678852 116.451605 
L 68.148646 106.211708 
L 70.289434 89.536004 
L 74.12368 59.578745 
L 75.721283 48.91923 
L 77.031317 41.585552 
L 78.149639 36.520461 
L 79.1082 33.142502 
L 79.938954 30.972213 
L 80.641899 29.698668 
L 81.248988 29.017229 
L 81.760221 28.743365 
L 82.239502 28.733371 
L 82.718782 28.958727 
L 83.230015 29.453332 
L 83.837104 30.371924 
L 84.540049 31.866683 
L 85.370803 34.194304 
L 86.361316 37.694346 
L 87.543542 42.767578 
L 89.013337 50.15076 
L 91.122172 62.039935 
L 94.988371 83.923995 
L 96.585973 91.624603 
L 97.896008 96.915586 
L 99.014329 100.570012 
L 100.004843 103.082777 
L 100.867548 104.692094 
L 101.602446 105.63022 
L 102.241487 106.122339 
L 102.816624 106.31066 
L 103.391761 106.262379 
L 103.966898 105.98376 
L 104.605939 105.41378 
L 105.340836 104.436263 
L 106.171589 102.945352 
L 107.162103 100.686319 
L 108.344329 97.406507 
L 109.846075 92.540856 
L 112.242479 83.896331 
L 115.21402 73.366033 
L 116.843575 68.398577 
L 118.185561 64.989958 
L 119.335835 62.645162 
L 120.358301 61.043824 
L 121.252958 60.027099 
L 122.083712 59.404738 
L 122.850561 59.100042 
L 123.585458 59.042631 
L 124.320355 59.203515 
L 125.119157 59.609483 
L 126.013814 60.32384 
L 127.068232 61.471805 
L 128.346314 63.219212 
L 130.103677 66.042864 
L 134.417204 73.130464 
L 135.886998 75.041048 
L 137.133128 76.309858 
L 138.25145 77.139664 
L 139.273916 77.631736 
L 140.26443 77.867365 
L 141.254943 77.876901 
L 142.309361 77.660638 
L 143.491587 77.180904 
L 144.929429 76.342413 
L 147.613402 74.44872 
L 149.498573 73.261138 
L 150.808607 72.686569 
L 151.926929 72.432103 
L 152.949395 72.426676 
L 153.939908 72.65013 
L 154.930422 73.110415 
L 155.952888 73.836639 
L 157.07121 74.913851 
L 158.31734 76.432595 
L 159.819086 78.631274 
L 162.023778 82.30821 
L 164.963367 87.14631 
L 166.369257 89.035514 
L 167.487579 90.189276 
L 168.44614 90.869803 
L 169.276894 91.195283 
L 170.043743 91.257024 
L 170.77864 91.087292 
L 171.513537 90.68372 
L 172.280387 90.006474 
L 173.143092 88.928267 
L 174.069702 87.399823 
L 175.124119 85.20926 
L 176.306345 82.221705 
L 177.712236 78.032774 
L 179.501551 71.948264 
L 185.09316 52.382183 
L 186.371242 48.955281 
L 187.42566 46.712658 
L 188.320317 45.296065 
L 189.087167 44.475152 
L 189.726208 44.087472 
L 190.301345 43.979388 
L 190.844529 44.093145 
L 191.419666 44.446886 
L 192.058707 45.125091 
L 192.761653 46.219507 
L 193.560454 47.903381 
L 194.455111 50.332939 
L 195.477577 53.780861 
L 196.659803 58.587787 
L 198.065693 65.289092 
L 199.88696 75.154127 
L 205.574426 106.839152 
L 206.916412 112.652824 
L 208.002782 116.440933 
L 208.929391 118.912979 
L 209.696241 120.376727 
L 210.335282 121.168077 
L 210.878467 121.522104 
L 211.357747 121.585033 
L 211.837028 121.410138 
L 212.348261 120.958608 
L 212.923398 120.121929 
L 213.594391 118.706576 
L 214.36124 116.516537 
L 215.223946 113.342129 
L 216.214459 108.814384 
L 217.364733 102.468306 
L 218.738672 93.564937 
L 220.496035 80.585216 
L 226.790589 32.544155 
L 228.068671 25.159144 
L 229.123089 20.249864 
L 230.017746 17.046074 
L 230.784596 15.065529 
L 231.423637 13.985354 
L 231.934869 13.507585 
L 232.382198 13.377326 
L 232.797575 13.500033 
L 233.244904 13.896674 
L 233.756136 14.687069 
L 234.363225 16.091898 
L 235.066171 18.344765 
L 235.385691 19.587515 
L 235.385691 19.587515 
" style="fill:none;stroke:#1f77b4;stroke-linecap:square;stroke-width:1.5;"/>
   </g>
   <g id="line2d_10">
    <path clip-path="url(#pac9d9197c8)" d="M 178.584865 75.150004 
L 162.608839 83.314286 
L 226.496584 34.435554 
L 235.40554 19.669164 
L 232.264632 13.38531 
L 232.373522 13.377273 
L 232.373376 13.377273 
L 232.373376 13.377273 
L 232.373376 13.377273 
L 232.373376 13.377273 
L 232.373376 13.377273 
" style="fill:none;stroke:#ff7f0e;stroke-linecap:square;stroke-width:1.5;"/>
    <defs>
     <path d="M 0 3 
C 0.795609 3 1.55874 2.683901 2.12132 2.12132 
C 2.683901 1.55874 3 0.795609 3 0 
C 3 -0.795609 2.683901 -1.55874 2.12132 -2.12132 
C 1.55874 -2.683901 0.795609 -3 0 -3 
C -0.795609 -3 -1.55874 -2.683901 -2.12132 -2.12132 
C -2.683901 -1.55874 -3 -0.795609 -3 0 
C -3 0.795609 -2.683901 1.55874 -2.12132 2.12132 
C -1.55874 2.683901 -0.795609 3 0 3 
z
" id="m44bbc30fd4" style="stroke:#ff7f0e;"/>
    </defs>
    <g clip-path="url(#pac9d9197c8)">
     <use style="fill:#ff7f0e;stroke:#ff7f0e;" x="178.584865" xlink:href="#m44bbc30fd4" y="75.150004"/>
     <use style="fill:#ff7f0e;stroke:#ff7f0e;" x="162.608839" xlink:href="#m44bbc30fd4" y="83.314286"/>
     <use style="fill:#ff7f0e;stroke:#ff7f0e;" x="226.496584" xlink:href="#m44bbc30fd4" y="34.435554"/>
     <use style="fill:#ff7f0e;stroke:#ff7f0e;" x="235.40554" xlink:href="#m44bbc30fd4" y="19.669164"/>
     <use style="fill:#ff7f0e;stroke:#ff7f0e;" x="232.264632" xlink:href="#m44bbc30fd4" y="13.38531"/>
     <use style="fill:#ff7f0e;stroke:#ff7f0e;" x="232.373522" xlink:href="#m44bbc30fd4" y="13.377273"/>
     <use style="fill:#ff7f0e;stroke:#ff7f0e;" x="232.373376" xlink:href="#m44bbc30fd4" y="13.377273"/>
     <use style="fill:#ff7f0e;stroke:#ff7f0e;" x="232.373376" xlink:href="#m44bbc30fd4" y="13.377273"/>
     <use style="fill:#ff7f0e;stroke:#ff7f0e;" x="232.373376" xlink:href="#m44bbc30fd4" y="13.377273"/>
     <use style="fill:#ff7f0e;stroke:#ff7f0e;" x="232.373376" xlink:href="#m44bbc30fd4" y="13.377273"/>
     <use style="fill:#ff7f0e;stroke:#ff7f0e;" x="232.373376" xlink:href="#m44bbc30fd4" y="13.377273"/>
    </g>
   </g>
   <g id="patch_3">
    <path d="M 48.982813 143.1 
L 48.982813 7.2 
" style="fill:none;stroke:#000000;stroke-linecap:square;stroke-linejoin:miter;stroke-width:0.8;"/>
   </g>
   <g id="patch_4">
    <path d="M 244.282813 143.1 
L 244.282813 7.2 
" style="fill:none;stroke:#000000;stroke-linecap:square;stroke-linejoin:miter;stroke-width:0.8;"/>
   </g>
   <g id="patch_5">
    <path d="M 48.982813 143.1 
L 244.282812 143.1 
" style="fill:none;stroke:#000000;stroke-linecap:square;stroke-linejoin:miter;stroke-width:0.8;"/>
   </g>
   <g id="patch_6">
    <path d="M 48.982813 7.2 
L 244.282812 7.2 
" style="fill:none;stroke:#000000;stroke-linecap:square;stroke-linejoin:miter;stroke-width:0.8;"/>
   </g>
  </g>
 </g>
 <defs>
  <clipPath id="pac9d9197c8">
   <rect height="135.9" width="195.3" x="48.982813" y="7.2"/>
  </clipPath>
 </defs>
</svg>
