<?xml version="1.0" encoding="utf-8" standalone="no"?>
<!DOCTYPE svg PUBLIC "-//W3C//DTD SVG 1.1//EN"
  "http://www.w3.org/Graphics/SVG/1.1/DTD/svg11.dtd">
<!-- Created with matplotlib (https://matplotlib.org/) -->
<svg height="166.978125pt" version="1.1" viewBox="0 0 380.482812 166.978125" width="380.482812pt" xmlns="http://www.w3.org/2000/svg" xmlns:xlink="http://www.w3.org/1999/xlink">
 <defs>
  <style type="text/css">
*{stroke-linecap:butt;stroke-linejoin:round;}
  </style>
 </defs>
 <g id="figure_1">
  <g id="patch_1">
   <path d="M -0 166.978125 
L 380.482812 166.978125 
L 380.482812 0 
L -0 0 
z
" style="fill:none;"/>
  </g>
  <g id="axes_1">
   <g id="patch_2">
    <path d="M 38.482813 143.1 
L 373.282813 143.1 
L 373.282813 7.2 
L 38.482813 7.2 
z
" style="fill:#ffffff;"/>
   </g>
   <g id="matplotlib.axis_1">
    <g id="xtick_1">
     <g id="line2d_1">
      <path clip-path="url(#pd95109dff1)" d="M 53.700994 143.1 
L 53.700994 7.2 
" style="fill:none;stroke:#b0b0b0;stroke-linecap:square;stroke-width:0.8;"/>
     </g>
     <g id="line2d_2">
      <defs>
       <path d="M 0 0 
L 0 3.5 
" id="ma8c81b1898" style="stroke:#000000;stroke-width:0.8;"/>
      </defs>
      <g>
       <use style="stroke:#000000;stroke-width:0.8;" x="53.700994" xlink:href="#ma8c81b1898" y="143.1"/>
      </g>
     </g>
     <g id="text_1">
      <!-- 0 -->
      <defs>
       <path d="M 31.78125 66.40625 
Q 24.171875 66.40625 20.328125 58.90625 
Q 16.5 51.421875 16.5 36.375 
Q 16.5 21.390625 20.328125 13.890625 
Q 24.171875 6.390625 31.78125 6.390625 
Q 39.453125 6.390625 43.28125 13.890625 
Q 47.125 21.390625 47.125 36.375 
Q 47.125 51.421875 43.28125 58.90625 
Q 39.453125 66.40625 31.78125 66.40625 
z
M 31.78125 74.21875 
Q 44.046875 74.21875 50.515625 64.515625 
Q 56.984375 54.828125 56.984375 36.375 
Q 56.984375 17.96875 50.515625 8.265625 
Q 44.046875 -1.421875 31.78125 -1.421875 
Q 19.53125 -1.421875 13.0625 8.265625 
Q 6.59375 17.96875 6.59375 36.375 
Q 6.59375 54.828125 13.0625 64.515625 
Q 19.53125 74.21875 31.78125 74.21875 
z
" id="DejaVuSans-48"/>
      </defs>
      <g transform="translate(50.519744 157.698438)scale(0.1 -0.1)">
       <use xlink:href="#DejaVuSans-48"/>
      </g>
     </g>
    </g>
    <g id="xtick_2">
     <g id="line2d_3">
      <path clip-path="url(#pd95109dff1)" d="M 115.188598 143.1 
L 115.188598 7.2 
" style="fill:none;stroke:#b0b0b0;stroke-linecap:square;stroke-width:0.8;"/>
     </g>
     <g id="line2d_4">
      <g>
       <use style="stroke:#000000;stroke-width:0.8;" x="115.188598" xlink:href="#ma8c81b1898" y="143.1"/>
      </g>
     </g>
     <g id="text_2">
      <!-- 20 -->
      <defs>
       <path d="M 19.1875 8.296875 
L 53.609375 8.296875 
L 53.609375 0 
L 7.328125 0 
L 7.328125 8.296875 
Q 12.9375 14.109375 22.625 23.890625 
Q 32.328125 33.6875 34.8125 36.53125 
Q 39.546875 41.84375 41.421875 45.53125 
Q 43.3125 49.21875 43.3125 52.78125 
Q 43.3125 58.59375 39.234375 62.25 
Q 35.15625 65.921875 28.609375 65.921875 
Q 23.96875 65.921875 18.8125 64.3125 
Q 13.671875 62.703125 7.8125 59.421875 
L 7.8125 69.390625 
Q 13.765625 71.78125 18.9375 73 
Q 24.125 74.21875 28.421875 74.21875 
Q 39.75 74.21875 46.484375 68.546875 
Q 53.21875 62.890625 53.21875 53.421875 
Q 53.21875 48.921875 51.53125 44.890625 
Q 49.859375 40.875 45.40625 35.40625 
Q 44.1875 33.984375 37.640625 27.21875 
Q 31.109375 20.453125 19.1875 8.296875 
z
" id="DejaVuSans-50"/>
      </defs>
      <g transform="translate(108.826098 157.698438)scale(0.1 -0.1)">
       <use xlink:href="#DejaVuSans-50"/>
       <use x="63.623047" xlink:href="#DejaVuSans-48"/>
      </g>
     </g>
    </g>
    <g id="xtick_3">
     <g id="line2d_5">
      <path clip-path="url(#pd95109dff1)" d="M 176.676201 143.1 
L 176.676201 7.2 
" style="fill:none;stroke:#b0b0b0;stroke-linecap:square;stroke-width:0.8;"/>
     </g>
     <g id="line2d_6">
      <g>
       <use style="stroke:#000000;stroke-width:0.8;" x="176.676201" xlink:href="#ma8c81b1898" y="143.1"/>
      </g>
     </g>
     <g id="text_3">
      <!-- 40 -->
      <defs>
       <path d="M 37.796875 64.3125 
L 12.890625 25.390625 
L 37.796875 25.390625 
z
M 35.203125 72.90625 
L 47.609375 72.90625 
L 47.609375 25.390625 
L 58.015625 25.390625 
L 58.015625 17.1875 
L 47.609375 17.1875 
L 47.609375 0 
L 37.796875 0 
L 37.796875 17.1875 
L 4.890625 17.1875 
L 4.890625 26.703125 
z
" id="DejaVuSans-52"/>
      </defs>
      <g transform="translate(170.313701 157.698438)scale(0.1 -0.1)">
       <use xlink:href="#DejaVuSans-52"/>
       <use x="63.623047" xlink:href="#DejaVuSans-48"/>
      </g>
     </g>
    </g>
    <g id="xtick_4">
     <g id="line2d_7">
      <path clip-path="url(#pd95109dff1)" d="M 238.163804 143.1 
L 238.163804 7.2 
" style="fill:none;stroke:#b0b0b0;stroke-linecap:square;stroke-width:0.8;"/>
     </g>
     <g id="line2d_8">
      <g>
       <use style="stroke:#000000;stroke-width:0.8;" x="238.163804" xlink:href="#ma8c81b1898" y="143.1"/>
      </g>
     </g>
     <g id="text_4">
      <!-- 60 -->
      <defs>
       <path d="M 33.015625 40.375 
Q 26.375 40.375 22.484375 35.828125 
Q 18.609375 31.296875 18.609375 23.390625 
Q 18.609375 15.53125 22.484375 10.953125 
Q 26.375 6.390625 33.015625 6.390625 
Q 39.65625 6.390625 43.53125 10.953125 
Q 47.40625 15.53125 47.40625 23.390625 
Q 47.40625 31.296875 43.53125 35.828125 
Q 39.65625 40.375 33.015625 40.375 
z
M 52.59375 71.296875 
L 52.59375 62.3125 
Q 48.875 64.0625 45.09375 64.984375 
Q 41.3125 65.921875 37.59375 65.921875 
Q 27.828125 65.921875 22.671875 59.328125 
Q 17.53125 52.734375 16.796875 39.40625 
Q 19.671875 43.65625 24.015625 45.921875 
Q 28.375 48.1875 33.59375 48.1875 
Q 44.578125 48.1875 50.953125 41.515625 
Q 57.328125 34.859375 57.328125 23.390625 
Q 57.328125 12.15625 50.6875 5.359375 
Q 44.046875 -1.421875 33.015625 -1.421875 
Q 20.359375 -1.421875 13.671875 8.265625 
Q 6.984375 17.96875 6.984375 36.375 
Q 6.984375 53.65625 15.1875 63.9375 
Q 23.390625 74.21875 37.203125 74.21875 
Q 40.921875 74.21875 44.703125 73.484375 
Q 48.484375 72.75 52.59375 71.296875 
z
" id="DejaVuSans-54"/>
      </defs>
      <g transform="translate(231.801304 157.698438)scale(0.1 -0.1)">
       <use xlink:href="#DejaVuSans-54"/>
       <use x="63.623047" xlink:href="#DejaVuSans-48"/>
      </g>
     </g>
    </g>
    <g id="xtick_5">
     <g id="line2d_9">
      <path clip-path="url(#pd95109dff1)" d="M 299.651408 143.1 
L 299.651408 7.2 
" style="fill:none;stroke:#b0b0b0;stroke-linecap:square;stroke-width:0.8;"/>
     </g>
     <g id="line2d_10">
      <g>
       <use style="stroke:#000000;stroke-width:0.8;" x="299.651408" xlink:href="#ma8c81b1898" y="143.1"/>
      </g>
     </g>
     <g id="text_5">
      <!-- 80 -->
      <defs>
       <path d="M 31.78125 34.625 
Q 24.75 34.625 20.71875 30.859375 
Q 16.703125 27.09375 16.703125 20.515625 
Q 16.703125 13.921875 20.71875 10.15625 
Q 24.75 6.390625 31.78125 6.390625 
Q 38.8125 6.390625 42.859375 10.171875 
Q 46.921875 13.96875 46.921875 20.515625 
Q 46.921875 27.09375 42.890625 30.859375 
Q 38.875 34.625 31.78125 34.625 
z
M 21.921875 38.8125 
Q 15.578125 40.375 12.03125 44.71875 
Q 8.5 49.078125 8.5 55.328125 
Q 8.5 64.0625 14.71875 69.140625 
Q 20.953125 74.21875 31.78125 74.21875 
Q 42.671875 74.21875 48.875 69.140625 
Q 55.078125 64.0625 55.078125 55.328125 
Q 55.078125 49.078125 51.53125 44.71875 
Q 48 40.375 41.703125 38.8125 
Q 48.828125 37.15625 52.796875 32.3125 
Q 56.78125 27.484375 56.78125 20.515625 
Q 56.78125 9.90625 50.3125 4.234375 
Q 43.84375 -1.421875 31.78125 -1.421875 
Q 19.734375 -1.421875 13.25 4.234375 
Q 6.78125 9.90625 6.78125 20.515625 
Q 6.78125 27.484375 10.78125 32.3125 
Q 14.796875 37.15625 21.921875 38.8125 
z
M 18.3125 54.390625 
Q 18.3125 48.734375 21.84375 45.5625 
Q 25.390625 42.390625 31.78125 42.390625 
Q 38.140625 42.390625 41.71875 45.5625 
Q 45.3125 48.734375 45.3125 54.390625 
Q 45.3125 60.0625 41.71875 63.234375 
Q 38.140625 66.40625 31.78125 66.40625 
Q 25.390625 66.40625 21.84375 63.234375 
Q 18.3125 60.0625 18.3125 54.390625 
z
" id="DejaVuSans-56"/>
      </defs>
      <g transform="translate(293.288908 157.698438)scale(0.1 -0.1)">
       <use xlink:href="#DejaVuSans-56"/>
       <use x="63.623047" xlink:href="#DejaVuSans-48"/>
      </g>
     </g>
    </g>
    <g id="xtick_6">
     <g id="line2d_11">
      <path clip-path="url(#pd95109dff1)" d="M 361.139011 143.1 
L 361.139011 7.2 
" style="fill:none;stroke:#b0b0b0;stroke-linecap:square;stroke-width:0.8;"/>
     </g>
     <g id="line2d_12">
      <g>
       <use style="stroke:#000000;stroke-width:0.8;" x="361.139011" xlink:href="#ma8c81b1898" y="143.1"/>
      </g>
     </g>
     <g id="text_6">
      <!-- 100 -->
      <defs>
       <path d="M 12.40625 8.296875 
L 28.515625 8.296875 
L 28.515625 63.921875 
L 10.984375 60.40625 
L 10.984375 69.390625 
L 28.421875 72.90625 
L 38.28125 72.90625 
L 38.28125 8.296875 
L 54.390625 8.296875 
L 54.390625 0 
L 12.40625 0 
z
" id="DejaVuSans-49"/>
      </defs>
      <g transform="translate(351.595261 157.698438)scale(0.1 -0.1)">
       <use xlink:href="#DejaVuSans-49"/>
       <use x="63.623047" xlink:href="#DejaVuSans-48"/>
       <use x="127.246094" xlink:href="#DejaVuSans-48"/>
      </g>
     </g>
    </g>
   </g>
   <g id="matplotlib.axis_2">
    <g id="ytick_1">
     <g id="line2d_13">
      <path clip-path="url(#pd95109dff1)" d="M 38.482813 136.928103 
L 373.282813 136.928103 
" style="fill:none;stroke:#b0b0b0;stroke-linecap:square;stroke-width:0.8;"/>
     </g>
     <g id="line2d_14">
      <defs>
       <path d="M 0 0 
L -3.5 0 
" id="m259e396dda" style="stroke:#000000;stroke-width:0.8;"/>
      </defs>
      <g>
       <use style="stroke:#000000;stroke-width:0.8;" x="38.482813" xlink:href="#m259e396dda" y="136.928103"/>
      </g>
     </g>
     <g id="text_7">
      <!-- −1.0 -->
      <defs>
       <path d="M 10.59375 35.5 
L 73.1875 35.5 
L 73.1875 27.203125 
L 10.59375 27.203125 
z
" id="DejaVuSans-8722"/>
       <path d="M 10.6875 12.40625 
L 21 12.40625 
L 21 0 
L 10.6875 0 
z
" id="DejaVuSans-46"/>
      </defs>
      <g transform="translate(7.2 140.727322)scale(0.1 -0.1)">
       <use xlink:href="#DejaVuSans-8722"/>
       <use x="83.789062" xlink:href="#DejaVuSans-49"/>
       <use x="147.412109" xlink:href="#DejaVuSans-46"/>
       <use x="179.199219" xlink:href="#DejaVuSans-48"/>
      </g>
     </g>
    </g>
    <g id="ytick_2">
     <g id="line2d_15">
      <path clip-path="url(#pd95109dff1)" d="M 38.482813 106.040396 
L 373.282813 106.040396 
" style="fill:none;stroke:#b0b0b0;stroke-linecap:square;stroke-width:0.8;"/>
     </g>
     <g id="line2d_16">
      <g>
       <use style="stroke:#000000;stroke-width:0.8;" x="38.482813" xlink:href="#m259e396dda" y="106.040396"/>
      </g>
     </g>
     <g id="text_8">
      <!-- −0.5 -->
      <defs>
       <path d="M 10.796875 72.90625 
L 49.515625 72.90625 
L 49.515625 64.59375 
L 19.828125 64.59375 
L 19.828125 46.734375 
Q 21.96875 47.46875 24.109375 47.828125 
Q 26.265625 48.1875 28.421875 48.1875 
Q 40.625 48.1875 47.75 41.5 
Q 54.890625 34.8125 54.890625 23.390625 
Q 54.890625 11.625 47.5625 5.09375 
Q 40.234375 -1.421875 26.90625 -1.421875 
Q 22.3125 -1.421875 17.546875 -0.640625 
Q 12.796875 0.140625 7.71875 1.703125 
L 7.71875 11.625 
Q 12.109375 9.234375 16.796875 8.0625 
Q 21.484375 6.890625 26.703125 6.890625 
Q 35.15625 6.890625 40.078125 11.328125 
Q 45.015625 15.765625 45.015625 23.390625 
Q 45.015625 31 40.078125 35.4375 
Q 35.15625 39.890625 26.703125 39.890625 
Q 22.75 39.890625 18.8125 39.015625 
Q 14.890625 38.140625 10.796875 36.28125 
z
" id="DejaVuSans-53"/>
      </defs>
      <g transform="translate(7.2 109.839614)scale(0.1 -0.1)">
       <use xlink:href="#DejaVuSans-8722"/>
       <use x="83.789062" xlink:href="#DejaVuSans-48"/>
       <use x="147.412109" xlink:href="#DejaVuSans-46"/>
       <use x="179.199219" xlink:href="#DejaVuSans-53"/>
      </g>
     </g>
    </g>
    <g id="ytick_3">
     <g id="line2d_17">
      <path clip-path="url(#pd95109dff1)" d="M 38.482813 75.152688 
L 373.282813 75.152688 
" style="fill:none;stroke:#b0b0b0;stroke-linecap:square;stroke-width:0.8;"/>
     </g>
     <g id="line2d_18">
      <g>
       <use style="stroke:#000000;stroke-width:0.8;" x="38.482813" xlink:href="#m259e396dda" y="75.152688"/>
      </g>
     </g>
     <g id="text_9">
      <!-- 0.0 -->
      <g transform="translate(15.579688 78.951907)scale(0.1 -0.1)">
       <use xlink:href="#DejaVuSans-48"/>
       <use x="63.623047" xlink:href="#DejaVuSans-46"/>
       <use x="95.410156" xlink:href="#DejaVuSans-48"/>
      </g>
     </g>
    </g>
    <g id="ytick_4">
     <g id="line2d_19">
      <path clip-path="url(#pd95109dff1)" d="M 38.482813 44.26498 
L 373.282813 44.26498 
" style="fill:none;stroke:#b0b0b0;stroke-linecap:square;stroke-width:0.8;"/>
     </g>
     <g id="line2d_20">
      <g>
       <use style="stroke:#000000;stroke-width:0.8;" x="38.482813" xlink:href="#m259e396dda" y="44.26498"/>
      </g>
     </g>
     <g id="text_10">
      <!-- 0.5 -->
      <g transform="translate(15.579688 48.064199)scale(0.1 -0.1)">
       <use xlink:href="#DejaVuSans-48"/>
       <use x="63.623047" xlink:href="#DejaVuSans-46"/>
       <use x="95.410156" xlink:href="#DejaVuSans-53"/>
      </g>
     </g>
    </g>
    <g id="ytick_5">
     <g id="line2d_21">
      <path clip-path="url(#pd95109dff1)" d="M 38.482813 13.377273 
L 373.282813 13.377273 
" style="fill:none;stroke:#b0b0b0;stroke-linecap:square;stroke-width:0.8;"/>
     </g>
     <g id="line2d_22">
      <g>
       <use style="stroke:#000000;stroke-width:0.8;" x="38.482813" xlink:href="#m259e396dda" y="13.377273"/>
      </g>
     </g>
     <g id="text_11">
      <!-- 1.0 -->
      <g transform="translate(15.579688 17.176491)scale(0.1 -0.1)">
       <use xlink:href="#DejaVuSans-49"/>
       <use x="63.623047" xlink:href="#DejaVuSans-46"/>
       <use x="95.410156" xlink:href="#DejaVuSans-48"/>
      </g>
     </g>
    </g>
   </g>
   <g id="line2d_23">
    <path clip-path="url(#pd95109dff1)" d="M 53.700994 75.152688 
L 56.775374 65.402881 
L 59.849755 55.897467 
L 62.924135 46.87471 
L 65.998515 38.560779 
L 69.072895 31.164074 
L 72.147275 24.869999 
L 75.221655 19.836327 
L 78.296036 16.189235 
L 81.370416 14.020138 
L 84.444796 13.383411 
L 87.519176 14.295011 
L 90.593556 16.732091 
L 93.667936 20.633561 
L 96.742317 25.901625 
L 99.816697 32.404235 
L 102.891077 39.978388 
L 105.965457 48.434233 
L 109.039837 57.559812 
L 112.114217 67.126379 
L 115.188598 76.894137 
L 118.262978 86.618243 
L 121.337358 96.054948 
L 124.411738 104.967713 
L 127.486118 113.133121 
L 130.560498 120.346502 
L 133.634879 126.42704 
L 136.709259 131.222318 
L 139.783639 134.612135 
L 142.858019 136.511521 
L 145.932399 136.872868 
L 149.006779 135.687117 
L 152.08116 132.98399 
L 155.15554 128.831246 
L 158.22992 123.332974 
L 161.3043 116.627001 
L 164.37868 108.881421 
L 167.45306 100.290383 
L 170.527441 91.069235 
L 173.601821 81.44912 
L 176.676201 71.671175 
L 179.750581 61.980498 
L 182.824961 52.62 
L 185.899341 43.824314 
L 188.973722 35.813916 
L 192.048102 28.789597 
L 195.122482 22.927429 
L 198.196862 18.374356 
L 201.271242 15.244511 
L 204.345622 13.616341 
L 207.420003 13.530662 
L 210.494383 14.989621 
L 213.568763 17.956644 
L 216.643143 22.357366 
L 219.717523 28.08147 
L 222.791903 34.98548 
L 225.866284 42.896332 
L 228.940664 51.615733 
L 232.015044 60.92512 
L 235.089424 70.591138 
L 238.163804 80.371499 
L 241.238184 90.021042 
L 244.312565 99.297891 
L 247.386945 107.969508 
L 250.461325 115.81853 
L 253.535705 122.648206 
L 256.610085 128.287345 
L 259.684465 132.59459 
L 262.758846 135.461982 
L 265.833226 136.81764 
L 268.907606 136.627581 
L 271.981986 134.896577 
L 275.056366 131.668011 
L 278.130746 127.022811 
L 281.205127 121.077421 
L 284.279507 113.980866 
L 287.353887 105.911029 
L 290.428267 97.070194 
L 293.502647 87.679969 
L 296.577027 77.97573 
L 299.651408 68.200728 
L 302.725788 58.599986 
L 305.800168 49.41416 
L 308.874548 40.873503 
L 311.948928 33.192102 
L 315.023308 26.562496 
L 318.097689 21.150867 
L 321.172069 17.09287 
L 324.246449 14.490214 
L 327.320829 13.408147 
L 330.395209 13.873789 
L 333.469589 15.875468 
L 336.54397 19.363008 
L 339.61835 24.248991 
L 342.69273 30.41094 
L 345.76711 37.694406 
L 348.84149 45.91681 
L 351.91587 54.872049 
L 354.990251 64.335652 
L 358.064631 74.070397 
" style="fill:none;stroke:#1f77b4;stroke-linecap:square;stroke-width:1.5;"/>
   </g>
   <g id="line2d_24">
    <path clip-path="url(#pd95109dff1)" d="M 53.700994 13.377273 
L 56.775374 14.151516 
L 59.849755 16.454832 
L 62.924135 20.229487 
L 65.998515 25.380869 
L 69.072895 31.779843 
L 72.147275 39.266019 
L 75.221655 47.651739 
L 78.296036 56.726809 
L 81.370416 66.263747 
L 84.444796 76.023499 
L 87.519176 85.761422 
L 90.593556 95.233423 
L 93.667936 104.202075 
L 96.742317 112.442565 
L 99.816697 119.748334 
L 102.891077 125.936253 
L 105.965457 130.851218 
L 109.039837 134.370022 
L 112.114217 136.404464 
L 115.188598 136.903551 
L 118.262978 135.854771 
L 121.337358 133.284413 
L 124.411738 129.256905 
L 127.486118 123.873204 
L 130.560498 117.268258 
L 133.634879 109.607627 
L 136.709259 101.083339 
L 139.783639 91.909066 
L 142.858019 82.31477 
L 145.932399 72.540947 
L 149.006779 62.832592 
L 152.08116 53.433056 
L 155.15554 44.577952 
L 158.22992 36.489243 
L 161.3043 29.369686 
L 164.37868 23.397741 
L 167.45306 18.723103 
L 170.527441 15.462944 
L 173.601821 13.698993 
L 176.676201 13.475456 
L 179.750581 14.797942 
L 182.824961 17.6333 
L 185.899341 21.910459 
L 188.973722 27.522203 
L 192.048102 34.327872 
L 195.122482 42.156867 
L 198.196862 50.812945 
L 201.271242 60.079132 
L 204.345622 69.723158 
L 207.420003 79.503282 
L 210.494383 89.174353 
L 213.568763 98.493952 
L 216.643143 107.22847 
L 219.717523 115.158969 
L 222.791903 122.086656 
L 225.866284 127.837881 
L 228.940664 132.268481 
L 232.015044 135.267398 
L 235.089424 136.759459 
L 238.163804 136.707265 
L 241.238184 135.112124 
L 244.312565 132.014022 
L 247.386945 127.490611 
L 250.461325 121.655283 
L 253.535705 114.654304 
L 256.610085 106.663168 
L 259.684465 97.882176 
L 262.758846 88.531442 
L 265.833226 78.845351 
L 268.907606 69.066698 
L 271.981986 59.440599 
L 275.056366 50.208343 
L 278.130746 41.601352 
L 281.205127 33.835368 
L 284.279507 27.105061 
L 287.353887 21.579128 
L 290.428267 17.396088 
L 293.502647 14.660794 
L 296.577027 13.441813 
L 299.651408 13.769693 
L 302.725788 15.63622 
L 305.800168 18.994606 
L 308.874548 23.760671 
L 311.948928 29.814944 
L 315.023308 37.005669 
L 318.097689 45.152597 
L 321.172069 54.051519 
L 324.246449 63.47937 
L 327.320829 73.199827 
L 330.395209 82.969237 
L 333.469589 92.542713 
L 336.54397 101.680286 
L 339.61835 110.152909 
L 342.69273 117.748205 
L 345.76711 124.275787 
L 348.84149 129.572034 
L 351.91587 133.50419 
L 354.990251 135.973684 
L 358.064631 136.918622 
" style="fill:none;stroke:#ff7f0e;stroke-linecap:square;stroke-width:1.5;"/>
   </g>
   <g id="line2d_25">
    <path clip-path="url(#pd95109dff1)" d="M 53.700994 75.152688 
L 56.775374 71.257509 
L 59.849755 67.377831 
L 62.924135 63.529095 
L 65.998515 59.726619 
L 69.072895 55.985533 
L 72.147275 52.32073 
L 75.221655 48.74679 
L 78.296036 45.277941 
L 81.370416 41.927984 
L 84.444796 38.710254 
L 87.519176 35.637558 
L 90.593556 32.722122 
L 93.667936 29.975546 
L 96.742317 27.408764 
L 99.816697 25.031994 
L 102.891077 22.854689 
L 105.965457 20.88552 
L 109.039837 19.132317 
L 112.114217 17.602065 
L 115.188598 16.300847 
L 118.262978 15.233847 
L 121.337358 14.405308 
L 124.411738 13.818528 
L 127.486118 13.475843 
L 130.560498 13.378617 
L 133.634879 13.527237 
L 136.709259 13.921108 
L 139.783639 14.558668 
L 142.858019 15.437379 
L 145.932399 16.553737 
L 149.006779 17.903308 
L 152.08116 19.480717 
L 155.15554 21.279685 
L 158.22992 23.293055 
L 161.3043 25.512813 
L 164.37868 27.930128 
L 167.45306 30.535373 
L 170.527441 33.318188 
L 173.601821 36.267489 
L 176.676201 39.371548 
L 179.750581 42.618002 
L 182.824961 45.993941 
L 185.899341 49.485923 
L 188.973722 53.080051 
L 192.048102 56.762024 
L 195.122482 60.517186 
L 198.196862 64.330594 
L 201.271242 68.187072 
L 204.345622 72.071271 
L 207.420003 75.967733 
L 210.494383 79.860952 
L 213.568763 83.735433 
L 216.643143 87.575757 
L 219.717523 91.36664 
L 222.791903 95.092995 
L 225.866284 98.739994 
L 228.940664 102.293119 
L 232.015044 105.738233 
L 235.089424 109.061626 
L 238.163804 112.250069 
L 241.238184 115.29087 
L 244.312565 118.171934 
L 247.386945 120.881795 
L 250.461325 123.409661 
L 253.535705 125.745479 
L 256.610085 127.879949 
L 259.684465 129.804577 
L 262.758846 131.511706 
L 265.833226 132.994536 
L 268.907606 134.247176 
L 271.981986 135.264629 
L 275.056366 136.042856 
L 278.130746 136.578753 
L 281.205127 136.870187 
L 284.279507 136.916004 
L 287.353887 136.716018 
L 290.428267 136.271025 
L 293.502647 135.582796 
L 296.577027 134.65407 
L 299.651408 133.488545 
L 302.725788 132.090856 
L 305.800168 130.466571 
L 308.874548 128.622147 
L 311.948928 126.564927 
L 315.023308 124.303101 
L 318.097689 121.845666 
L 321.172069 119.202407 
L 324.246449 116.383843 
L 327.320829 113.401186 
L 330.395209 110.26631 
L 333.469589 106.991689 
L 336.54397 103.59036 
L 339.61835 100.075855 
L 342.69273 96.462161 
L 345.76711 92.763661 
L 348.84149 88.995074 
L 351.91587 85.171398 
L 354.990251 81.30785 
L 358.064631 77.419806 
" style="fill:none;stroke:#2ca02c;stroke-linecap:square;stroke-width:1.5;"/>
   </g>
   <g id="line2d_26">
    <path clip-path="url(#pd95109dff1)" d="M 53.700994 13.377273 
L 56.775374 13.5002 
L 59.849755 13.868484 
L 62.924135 14.48067 
L 65.998515 15.33431 
L 69.072895 16.426016 
L 72.147275 17.751436 
L 75.221655 19.305302 
L 78.296036 21.081426 
L 81.370416 23.07274 
L 84.444796 25.271319 
L 87.519176 27.668411 
L 90.593556 30.254484 
L 93.667936 33.019238 
L 96.742317 35.951671 
L 99.816697 39.040115 
L 102.891077 42.272278 
L 105.965457 45.635298 
L 109.039837 49.11579 
L 112.114217 52.699902 
L 115.188598 56.373369 
L 118.262978 60.121576 
L 121.337358 63.929601 
L 124.411738 67.782291 
L 127.486118 71.664314 
L 130.560498 75.56022 
L 133.634879 79.454503 
L 136.709259 83.331667 
L 139.783639 87.176281 
L 142.858019 90.973042 
L 145.932399 94.706844 
L 149.006779 98.362825 
L 152.08116 101.926435 
L 155.15554 105.383492 
L 158.22992 108.72024 
L 161.3043 111.923392 
L 164.37868 114.980211 
L 167.45306 117.878525 
L 170.527441 120.606801 
L 173.601821 123.154182 
L 176.676201 125.510524 
L 179.750581 127.666461 
L 182.824961 129.613402 
L 185.899341 131.343603 
L 188.973722 132.850179 
L 192.048102 134.127136 
L 195.122482 135.169384 
L 198.196862 135.972786 
L 201.271242 136.534137 
L 204.345622 136.851202 
L 207.420003 136.922727 
L 210.494383 136.74842 
L 213.568763 136.328977 
L 216.643143 135.66607 
L 219.717523 134.762331 
L 222.791903 133.621362 
L 225.866284 132.247706 
L 228.940664 130.646821 
L 232.015044 128.825086 
L 235.089424 126.789745 
L 238.163804 124.548907 
L 241.238184 122.111481 
L 244.312565 119.487169 
L 247.386945 116.686419 
L 250.461325 113.720376 
L 253.535705 110.60084 
L 256.610085 107.340233 
L 259.684465 103.951525 
L 262.758846 100.448205 
L 265.833226 96.844216 
L 268.907606 93.153899 
L 271.981986 89.391942 
L 275.056366 85.573316 
L 278.130746 81.71322 
L 281.205127 77.827014 
L 284.279507 73.930164 
L 287.353887 70.03818 
L 290.428267 66.166551 
L 293.502647 62.330684 
L 296.577027 58.545846 
L 299.651408 54.827098 
L 302.725788 51.189241 
L 305.800168 47.646753 
L 308.874548 44.213733 
L 311.948928 40.90384 
L 315.023308 37.730248 
L 318.097689 34.705593 
L 321.172069 31.841904 
L 324.246449 29.150579 
L 327.320829 26.642335 
L 330.395209 24.327147 
L 333.469589 22.214236 
L 336.54397 20.312003 
L 339.61835 18.628023 
L 342.69273 17.168998 
L 345.76711 15.940734 
L 348.84149 14.948116 
L 351.91587 14.195101 
L 354.990251 13.68468 
L 358.064631 13.418888 
" style="fill:none;stroke:#d62728;stroke-linecap:square;stroke-width:1.5;"/>
   </g>
   <g id="patch_3">
    <path d="M 38.482813 143.1 
L 38.482813 7.2 
" style="fill:none;stroke:#000000;stroke-linecap:square;stroke-linejoin:miter;stroke-width:0.8;"/>
   </g>
   <g id="patch_4">
    <path d="M 373.282813 143.1 
L 373.282813 7.2 
" style="fill:none;stroke:#000000;stroke-linecap:square;stroke-linejoin:miter;stroke-width:0.8;"/>
   </g>
   <g id="patch_5">
    <path d="M 38.482813 143.1 
L 373.282812 143.1 
" style="fill:none;stroke:#000000;stroke-linecap:square;stroke-linejoin:miter;stroke-width:0.8;"/>
   </g>
   <g id="patch_6">
    <path d="M 38.482813 7.2 
L 373.282812 7.2 
" style="fill:none;stroke:#000000;stroke-linecap:square;stroke-linejoin:miter;stroke-width:0.8;"/>
   </g>
   <g id="legend_1">
    <g id="patch_7">
     <path d="M 45.482813 138.1 
L 105.890625 138.1 
Q 107.890625 138.1 107.890625 136.1 
L 107.890625 78.3875 
Q 107.890625 76.3875 105.890625 76.3875 
L 45.482813 76.3875 
Q 43.482813 76.3875 43.482813 78.3875 
L 43.482813 136.1 
Q 43.482813 138.1 45.482813 138.1 
z
" style="fill:#ffffff;opacity:0.8;stroke:#cccccc;stroke-linejoin:miter;"/>
    </g>
    <g id="line2d_27">
     <path d="M 47.482813 84.485938 
L 67.482812 84.485938 
" style="fill:none;stroke:#1f77b4;stroke-linecap:square;stroke-width:1.5;"/>
    </g>
    <g id="line2d_28"/>
    <g id="text_12">
     <!-- dim 4 -->
     <defs>
      <path d="M 45.40625 46.390625 
L 45.40625 75.984375 
L 54.390625 75.984375 
L 54.390625 0 
L 45.40625 0 
L 45.40625 8.203125 
Q 42.578125 3.328125 38.25 0.953125 
Q 33.9375 -1.421875 27.875 -1.421875 
Q 17.96875 -1.421875 11.734375 6.484375 
Q 5.515625 14.40625 5.515625 27.296875 
Q 5.515625 40.1875 11.734375 48.09375 
Q 17.96875 56 27.875 56 
Q 33.9375 56 38.25 53.625 
Q 42.578125 51.265625 45.40625 46.390625 
z
M 14.796875 27.296875 
Q 14.796875 17.390625 18.875 11.75 
Q 22.953125 6.109375 30.078125 6.109375 
Q 37.203125 6.109375 41.296875 11.75 
Q 45.40625 17.390625 45.40625 27.296875 
Q 45.40625 37.203125 41.296875 42.84375 
Q 37.203125 48.484375 30.078125 48.484375 
Q 22.953125 48.484375 18.875 42.84375 
Q 14.796875 37.203125 14.796875 27.296875 
z
" id="DejaVuSans-100"/>
      <path d="M 9.421875 54.6875 
L 18.40625 54.6875 
L 18.40625 0 
L 9.421875 0 
z
M 9.421875 75.984375 
L 18.40625 75.984375 
L 18.40625 64.59375 
L 9.421875 64.59375 
z
" id="DejaVuSans-105"/>
      <path d="M 52 44.1875 
Q 55.375 50.25 60.0625 53.125 
Q 64.75 56 71.09375 56 
Q 79.640625 56 84.28125 50.015625 
Q 88.921875 44.046875 88.921875 33.015625 
L 88.921875 0 
L 79.890625 0 
L 79.890625 32.71875 
Q 79.890625 40.578125 77.09375 44.375 
Q 74.3125 48.1875 68.609375 48.1875 
Q 61.625 48.1875 57.5625 43.546875 
Q 53.515625 38.921875 53.515625 30.90625 
L 53.515625 0 
L 44.484375 0 
L 44.484375 32.71875 
Q 44.484375 40.625 41.703125 44.40625 
Q 38.921875 48.1875 33.109375 48.1875 
Q 26.21875 48.1875 22.15625 43.53125 
Q 18.109375 38.875 18.109375 30.90625 
L 18.109375 0 
L 9.078125 0 
L 9.078125 54.6875 
L 18.109375 54.6875 
L 18.109375 46.1875 
Q 21.1875 51.21875 25.484375 53.609375 
Q 29.78125 56 35.6875 56 
Q 41.65625 56 45.828125 52.96875 
Q 50 49.953125 52 44.1875 
z
" id="DejaVuSans-109"/>
      <path id="DejaVuSans-32"/>
     </defs>
     <g transform="translate(75.482812 87.985938)scale(0.1 -0.1)">
      <use xlink:href="#DejaVuSans-100"/>
      <use x="63.476562" xlink:href="#DejaVuSans-105"/>
      <use x="91.259766" xlink:href="#DejaVuSans-109"/>
      <use x="188.671875" xlink:href="#DejaVuSans-32"/>
      <use x="220.458984" xlink:href="#DejaVuSans-52"/>
     </g>
    </g>
    <g id="line2d_29">
     <path d="M 47.482813 99.164062 
L 67.482812 99.164062 
" style="fill:none;stroke:#ff7f0e;stroke-linecap:square;stroke-width:1.5;"/>
    </g>
    <g id="line2d_30"/>
    <g id="text_13">
     <!-- dim 5 -->
     <g transform="translate(75.482812 102.664062)scale(0.1 -0.1)">
      <use xlink:href="#DejaVuSans-100"/>
      <use x="63.476562" xlink:href="#DejaVuSans-105"/>
      <use x="91.259766" xlink:href="#DejaVuSans-109"/>
      <use x="188.671875" xlink:href="#DejaVuSans-32"/>
      <use x="220.458984" xlink:href="#DejaVuSans-53"/>
     </g>
    </g>
    <g id="line2d_31">
     <path d="M 47.482813 113.842188 
L 67.482812 113.842188 
" style="fill:none;stroke:#2ca02c;stroke-linecap:square;stroke-width:1.5;"/>
    </g>
    <g id="line2d_32"/>
    <g id="text_14">
     <!-- dim 6 -->
     <g transform="translate(75.482812 117.342188)scale(0.1 -0.1)">
      <use xlink:href="#DejaVuSans-100"/>
      <use x="63.476562" xlink:href="#DejaVuSans-105"/>
      <use x="91.259766" xlink:href="#DejaVuSans-109"/>
      <use x="188.671875" xlink:href="#DejaVuSans-32"/>
      <use x="220.458984" xlink:href="#DejaVuSans-54"/>
     </g>
    </g>
    <g id="line2d_33">
     <path d="M 47.482813 128.520313 
L 67.482812 128.520313 
" style="fill:none;stroke:#d62728;stroke-linecap:square;stroke-width:1.5;"/>
    </g>
    <g id="line2d_34"/>
    <g id="text_15">
     <!-- dim 7 -->
     <defs>
      <path d="M 8.203125 72.90625 
L 55.078125 72.90625 
L 55.078125 68.703125 
L 28.609375 0 
L 18.3125 0 
L 43.21875 64.59375 
L 8.203125 64.59375 
z
" id="DejaVuSans-55"/>
     </defs>
     <g transform="translate(75.482812 132.020313)scale(0.1 -0.1)">
      <use xlink:href="#DejaVuSans-100"/>
      <use x="63.476562" xlink:href="#DejaVuSans-105"/>
      <use x="91.259766" xlink:href="#DejaVuSans-109"/>
      <use x="188.671875" xlink:href="#DejaVuSans-32"/>
      <use x="220.458984" xlink:href="#DejaVuSans-55"/>
     </g>
    </g>
   </g>
  </g>
 </g>
 <defs>
  <clipPath id="pd95109dff1">
   <rect height="135.9" width="334.8" x="38.482813" y="7.2"/>
  </clipPath>
 </defs>
</svg>
